# xmcd
#
# Track frame offsets:
#	150
#	12438
#	25908
#	39440
#	53596
#	66210
#	85086
#	99046
#	116959
#	133671
#	146702
#	161417
#	175709
#	192571
#	206831
#	220405
#	233443
#	248216
#	264135
#	280198
#	297808
#	315124
#	328082
#
# Disc length: 4601 seconds
#
# Revision: 1
# Processed by: cddbd v1.5.2PL0 Copyright (c) Steve Scherf et al.
# Submitted via: audiograbber 1.83.01
#
DISCID=4211f717
DTITLE=Various Artist - Cream Of Country 2019
DYEAR=2019
DGENRE=Country
TTITLE0=Rodney Atkins Featuring The Fisk Jubilee Singers - Caught Up In The Cou
TTITLE0=ntry
TTITLE1=Kane Brown - Lose It
TTITLE2=Randy Houser - We Went
TTITLE3=Maddie and Tae - Friends Don't
TTITLE4=Old Dominion - Hotel Key
TTITLE5=Brad Paisley - Bucked Off
TTITLE6=Chris Young - Hangin' On
TTITLE7=Miranda Lambert - Keeper Of The Flame
TTITLE8=Luke Combs - One Number Away
TTITLE9=Jon Pardi - Night Shift
TTITLE10=Jimmie Allen - Best Shot
TTITLE11=Kelsea Ballerini - I Hate Love Songs
TTITLE12=Lee Brice - Rumor
TTITLE13=Dustin Lynch - Good Girl
TTITLE14=Dierks Bentley - Woman, Amen
TTITLE15=Pistol Annies - Got My Name Changed Back
TTITLE16=Granger Smith - You're In It
TTITLE17=Russell Dickerson - Blue Tacoma
TTITLE18=Sam Hunt - Downtown's Dead
TTITLE19=Maren Morris - Once
TTITLE20=Scotty McCreery - This Is It
TTITLE21=Walker Hayes - 90's Country
TTITLE22=Stephanie Quayle - Selfish
EXTD=
EXTT0=
EXTT1=
EXTT2=
EXTT3=
EXTT4=
EXTT5=
EXTT6=
EXTT7=
EXTT8=
EXTT9=
EXTT10=
EXTT11=
EXTT12=
EXTT13=
EXTT14=
EXTT15=
EXTT16=
EXTT17=
EXTT18=
EXTT19=
EXTT20=
EXTT21=
EXTT22=
PLAYORDER=
